<svg width="249" height="50" viewBox="0 0 249 50" fill="none" xmlns="http://www.w3.org/2000/svg">
<path d="M30.48 18.64V36.76C30.48 44.28 26.64 48.04 18.96 48.04C16.9067 48.04 14.96 47.7733 13.12 47.24C11.28 46.7333 9.76 45.9867 8.56 45L10.8 41.24C11.7333 42.0133 12.9067 42.6267 14.32 43.08C15.76 43.56 17.2133 43.8 18.68 43.8C21.0267 43.8 22.7467 43.2667 23.84 42.2C24.9333 41.1333 25.48 39.5067 25.48 37.32V36.2C24.6267 37.1333 23.5867 37.84 22.36 38.32C21.1333 38.8 19.7867 39.04 18.32 39.04C16.2933 39.04 14.4533 38.6133 12.8 37.76C11.1733 36.88 9.88 35.6533 8.92 34.08C7.98667 32.5067 7.52 30.7067 7.52 28.68C7.52 26.6533 7.98667 24.8667 8.92 23.32C9.88 21.7467 11.1733 20.5333 12.8 19.68C14.4533 18.8267 16.2933 18.4 18.32 18.4C19.8667 18.4 21.2667 18.6533 22.52 19.16C23.8 19.6667 24.8667 20.44 25.72 21.48V18.64H30.48ZM19.08 34.8C20.9733 34.8 22.52 34.24 23.72 33.12C24.9467 31.9733 25.56 30.4933 25.56 28.68C25.56 26.8933 24.9467 25.44 23.72 24.32C22.52 23.2 20.9733 22.64 19.08 22.64C17.16 22.64 15.5867 23.2 14.36 24.32C13.16 25.44 12.56 26.8933 12.56 28.68C12.56 30.4933 13.16 31.9733 14.36 33.12C15.5867 34.24 17.16 34.8 19.08 34.8Z" fill="black"/>
<path d="M57.1334 29.44C57.1334 29.7867 57.1068 30.28 57.0534 30.92H40.2934C40.5868 32.4933 41.3468 33.7467 42.5734 34.68C43.8268 35.5867 45.3734 36.04 47.2134 36.04C49.5601 36.04 51.4934 35.2667 53.0134 33.72L55.6934 36.8C54.7334 37.9467 53.5201 38.8133 52.0534 39.4C50.5868 39.9867 48.9334 40.28 47.0934 40.28C44.7468 40.28 42.6801 39.8133 40.8934 38.88C39.1068 37.9467 37.7201 36.6533 36.7334 35C35.7734 33.32 35.2934 31.4267 35.2934 29.32C35.2934 27.24 35.7601 25.3733 36.6934 23.72C37.6534 22.04 38.9734 20.7333 40.6534 19.8C42.3334 18.8667 44.2268 18.4 46.3334 18.4C48.4134 18.4 50.2668 18.8667 51.8934 19.8C53.5468 20.7067 54.8268 22 55.7334 23.68C56.6668 25.3333 57.1334 27.2533 57.1334 29.44ZM46.3334 22.4C44.7334 22.4 43.3734 22.88 42.2534 23.84C41.1601 24.7733 40.4934 26.0267 40.2534 27.6H52.3734C52.1601 26.0533 51.5068 24.8 50.4134 23.84C49.3201 22.88 47.9601 22.4 46.3334 22.4Z" fill="black"/>
<path d="M71.5363 40.28C69.3763 40.28 67.4296 39.8133 65.6963 38.88C63.9629 37.9467 62.6029 36.6533 61.6163 35C60.6563 33.32 60.1763 31.4267 60.1763 29.32C60.1763 27.2133 60.6563 25.3333 61.6163 23.68C62.6029 22.0267 63.9629 20.7333 65.6963 19.8C67.4296 18.8667 69.3763 18.4 71.5363 18.4C73.7229 18.4 75.6829 18.8667 77.4163 19.8C79.1496 20.7333 80.4963 22.0267 81.4563 23.68C82.4429 25.3333 82.9363 27.2133 82.9363 29.32C82.9363 31.4267 82.4429 33.32 81.4563 35C80.4963 36.6533 79.1496 37.9467 77.4163 38.88C75.6829 39.8133 73.7229 40.28 71.5363 40.28ZM71.5363 36C73.3763 36 74.8963 35.3867 76.0963 34.16C77.2963 32.9333 77.8963 31.32 77.8963 29.32C77.8963 27.32 77.2963 25.7067 76.0963 24.48C74.8963 23.2533 73.3763 22.64 71.5363 22.64C69.6963 22.64 68.1763 23.2533 66.9763 24.48C65.8029 25.7067 65.2163 27.32 65.2163 29.32C65.2163 31.32 65.8029 32.9333 66.9763 34.16C68.1763 35.3867 69.6963 36 71.5363 36Z" fill="black"/>
<path d="M92.4775 21.76C93.9175 19.52 96.4508 18.4 100.078 18.4V23.16C99.6508 23.08 99.2642 23.04 98.9175 23.04C96.9708 23.04 95.4508 23.6133 94.3575 24.76C93.2642 25.88 92.7175 27.5067 92.7175 29.64V40H87.7175V18.64H92.4775V21.76Z" fill="black"/>
<path d="M125.324 18.64V36.76C125.324 44.28 121.484 48.04 113.804 48.04C111.75 48.04 109.804 47.7733 107.964 47.24C106.124 46.7333 104.604 45.9867 103.404 45L105.644 41.24C106.577 42.0133 107.75 42.6267 109.164 43.08C110.604 43.56 112.057 43.8 113.524 43.8C115.87 43.8 117.59 43.2667 118.684 42.2C119.777 41.1333 120.324 39.5067 120.324 37.32V36.2C119.47 37.1333 118.43 37.84 117.204 38.32C115.977 38.8 114.63 39.04 113.164 39.04C111.137 39.04 109.297 38.6133 107.644 37.76C106.017 36.88 104.724 35.6533 103.764 34.08C102.83 32.5067 102.364 30.7067 102.364 28.68C102.364 26.6533 102.83 24.8667 103.764 23.32C104.724 21.7467 106.017 20.5333 107.644 19.68C109.297 18.8267 111.137 18.4 113.164 18.4C114.71 18.4 116.11 18.6533 117.364 19.16C118.644 19.6667 119.71 20.44 120.564 21.48V18.64H125.324ZM113.924 34.8C115.817 34.8 117.364 34.24 118.564 33.12C119.79 31.9733 120.404 30.4933 120.404 28.68C120.404 26.8933 119.79 25.44 118.564 24.32C117.364 23.2 115.817 22.64 113.924 22.64C112.004 22.64 110.43 23.2 109.204 24.32C108.004 25.44 107.404 26.8933 107.404 28.68C107.404 30.4933 108.004 31.9733 109.204 33.12C110.43 34.24 112.004 34.8 113.924 34.8Z" fill="black"/>
<path d="M151.977 29.44C151.977 29.7867 151.951 30.28 151.897 30.92H135.137C135.431 32.4933 136.191 33.7467 137.417 34.68C138.671 35.5867 140.217 36.04 142.057 36.04C144.404 36.04 146.337 35.2667 147.857 33.72L150.537 36.8C149.577 37.9467 148.364 38.8133 146.897 39.4C145.431 39.9867 143.777 40.28 141.937 40.28C139.591 40.28 137.524 39.8133 135.737 38.88C133.951 37.9467 132.564 36.6533 131.577 35C130.617 33.32 130.137 31.4267 130.137 29.32C130.137 27.24 130.604 25.3733 131.537 23.72C132.497 22.04 133.817 20.7333 135.497 19.8C137.177 18.8667 139.071 18.4 141.177 18.4C143.257 18.4 145.111 18.8667 146.737 19.8C148.391 20.7067 149.671 22 150.577 23.68C151.511 25.3333 151.977 27.2533 151.977 29.44ZM141.177 22.4C139.577 22.4 138.217 22.88 137.097 23.84C136.004 24.7733 135.337 26.0267 135.097 27.6H147.217C147.004 26.0533 146.351 24.8 145.257 23.84C144.164 22.88 142.804 22.4 141.177 22.4Z" fill="black"/>
<path d="M165.46 14.08C163.353 14.08 162.3 15.2267 162.3 17.52V18.8H168.18V22.8H162.46V40H157.46V22.8V18.8V17.44C157.46 15.1467 158.127 13.3467 159.46 12.04C160.793 10.7067 162.673 10.04 165.1 10.04C167.02 10.04 168.527 10.4267 169.62 11.2L168.22 14.96C167.367 14.3733 166.447 14.08 165.46 14.08ZM174.74 18.64H179.74V40H174.74V18.64Z" fill="black"/>
<path d="M198.431 18.4C201.125 18.4 203.285 19.1867 204.911 20.76C206.538 22.3333 207.351 24.6667 207.351 27.76V40H202.351V28.4C202.351 26.5333 201.911 25.1333 201.031 24.2C200.151 23.24 198.898 22.76 197.271 22.76C195.431 22.76 193.978 23.32 192.911 24.44C191.845 25.5333 191.311 27.12 191.311 29.2V40H186.311V18.64H191.071V21.4C191.898 20.4133 192.938 19.6667 194.191 19.16C195.445 18.6533 196.858 18.4 198.431 18.4Z" fill="black"/>
<path d="M225.814 18.4C228.507 18.4 230.667 19.1867 232.294 20.76C233.921 22.3333 234.734 24.6667 234.734 27.76V40H229.734V28.4C229.734 26.5333 229.294 25.1333 228.414 24.2C227.534 23.24 226.281 22.76 224.654 22.76C222.814 22.76 221.361 23.32 220.294 24.44C219.227 25.5333 218.694 27.12 218.694 29.2V40H213.694V18.64H218.454V21.4C219.281 20.4133 220.321 19.6667 221.574 19.16C222.827 18.6533 224.241 18.4 225.814 18.4Z" fill="black"/>
</svg>
