<?xml version="1.0" encoding="UTF-8" standalone="no"?><!DOCTYPE svg PUBLIC "-//W3C//DTD SVG 1.1//EN" "http://www.w3.org/Graphics/SVG/1.1/DTD/svg11.dtd"><svg width="100%" height="100%" viewBox="0 0 470 470" version="1.1" xmlns="http://www.w3.org/2000/svg" xmlns:xlink="http://www.w3.org/1999/xlink" xml:space="preserve" xmlns:serif="http://www.serif.com/" style="fill-rule:evenodd;clip-rule:evenodd;stroke-linejoin:round;stroke-miterlimit:1.41421;"><path d="M234.549,430.576c-108.091,0 -196.027,-87.939 -196.027,-196.027c0,-108.087 87.936,-196.027 196.027,-196.027c108.087,0 196.023,87.94 196.023,196.027c0,108.088 -87.936,196.027 -196.023,196.027m0,-430.576c-129.541,0 -234.549,105.009 -234.549,234.549c0,129.541 105.008,234.546 234.549,234.546c129.537,0 234.545,-105.005 234.545,-234.546c0,-129.54 -105.008,-234.549 -234.545,-234.549" style="fill:#231f20;fill-rule:nonzero;"/><path d="M354.644,255.407l-31.18,-20.858l31.18,-20.857l0,41.715Zm-107.633,88.412l0,-58.133l54.035,-36.138l43.619,29.172l-97.654,65.099Zm-12.462,-79.784l-44.084,-29.486l44.084,-29.486l44.08,29.486l-44.08,29.486Zm-12.466,79.784l-97.655,-65.099l43.623,-29.172l54.032,36.138l0,58.133Zm-107.633,-130.127l31.183,20.857l-31.183,20.858l0,-41.715Zm107.633,-88.413l0,58.133l-54.032,36.146l-43.623,-29.181l97.655,-65.098Zm24.928,0l97.654,65.098l-43.619,29.181l-54.035,-36.146l0,-58.133Zm132.45,63.458c-0.026,-0.183 -0.072,-0.358 -0.102,-0.541c-0.062,-0.352 -0.126,-0.703 -0.218,-1.046c-0.054,-0.206 -0.13,-0.404 -0.194,-0.602c-0.1,-0.306 -0.199,-0.611 -0.321,-0.908c-0.085,-0.206 -0.183,-0.412 -0.278,-0.61c-0.131,-0.283 -0.267,-0.558 -0.424,-0.824c-0.114,-0.199 -0.236,-0.39 -0.354,-0.58c-0.168,-0.26 -0.34,-0.512 -0.528,-0.756c-0.136,-0.183 -0.281,-0.366 -0.426,-0.542c-0.199,-0.228 -0.405,-0.457 -0.622,-0.671c-0.163,-0.167 -0.325,-0.335 -0.496,-0.488c-0.229,-0.206 -0.465,-0.405 -0.706,-0.595c-0.186,-0.145 -0.37,-0.29 -0.564,-0.427c-0.073,-0.046 -0.137,-0.107 -0.206,-0.153l-132.562,-88.374c-4.187,-2.792 -9.639,-2.792 -13.827,0l-132.561,88.374c-0.069,0.046 -0.134,0.107 -0.206,0.153c-0.195,0.137 -0.378,0.282 -0.561,0.427c-0.244,0.19 -0.481,0.389 -0.705,0.595c-0.176,0.153 -0.336,0.321 -0.5,0.488c-0.217,0.214 -0.423,0.443 -0.618,0.671c-0.149,0.176 -0.294,0.359 -0.431,0.542c-0.183,0.244 -0.359,0.496 -0.523,0.756c-0.126,0.19 -0.244,0.381 -0.358,0.58c-0.153,0.266 -0.29,0.541 -0.424,0.824c-0.095,0.198 -0.194,0.404 -0.278,0.61c-0.122,0.297 -0.221,0.602 -0.321,0.908c-0.065,0.198 -0.137,0.396 -0.194,0.602c-0.092,0.343 -0.153,0.694 -0.218,1.046c-0.03,0.183 -0.076,0.358 -0.099,0.541c-0.073,0.534 -0.114,1.076 -0.114,1.625l0,88.374c0,0.549 0.041,1.091 0.114,1.633c0.023,0.176 0.069,0.358 0.099,0.533c0.065,0.352 0.126,0.702 0.218,1.046c0.057,0.206 0.129,0.404 0.194,0.603c0.1,0.304 0.199,0.61 0.321,0.915c0.084,0.207 0.183,0.405 0.278,0.603c0.134,0.281 0.271,0.556 0.424,0.831c0.114,0.192 0.232,0.381 0.358,0.572c0.164,0.26 0.34,0.512 0.523,0.756c0.137,0.191 0.282,0.366 0.431,0.541c0.195,0.229 0.401,0.458 0.618,0.672c0.164,0.167 0.324,0.335 0.5,0.487c0.224,0.208 0.461,0.406 0.705,0.596c0.183,0.146 0.366,0.29 0.561,0.427c0.072,0.046 0.137,0.107 0.206,0.152l132.561,88.375c2.094,1.396 4.505,2.098 6.916,2.098c2.407,0 4.817,-0.702 6.911,-2.098l132.562,-88.375c0.069,-0.045 0.133,-0.106 0.206,-0.152c0.194,-0.137 0.378,-0.281 0.564,-0.427c0.241,-0.19 0.477,-0.388 0.706,-0.596c0.171,-0.152 0.333,-0.32 0.496,-0.487c0.217,-0.214 0.423,-0.443 0.622,-0.672c0.145,-0.175 0.29,-0.35 0.426,-0.541c0.188,-0.244 0.36,-0.496 0.528,-0.756c0.118,-0.191 0.24,-0.38 0.354,-0.572c0.157,-0.275 0.293,-0.55 0.424,-0.831c0.095,-0.198 0.193,-0.396 0.278,-0.603c0.122,-0.305 0.221,-0.611 0.321,-0.915c0.064,-0.199 0.14,-0.397 0.194,-0.603c0.092,-0.344 0.156,-0.694 0.218,-1.046c0.03,-0.175 0.076,-0.357 0.102,-0.533c0.069,-0.542 0.112,-1.084 0.112,-1.633l0,-88.374c0,-0.549 -0.043,-1.091 -0.112,-1.625" style="fill:#231f20;fill-rule:nonzero;"/></svg>