<?xml version="1.0" encoding="UTF-8"?>
<svg width="228px" height="39px" viewBox="0 0 228 39" version="1.1" xmlns="http://www.w3.org/2000/svg" xmlns:xlink="http://www.w3.org/1999/xlink">
    <!-- Generator: Sketch 52.5 (67469) - http://www.bohemiancoding.com/sketch -->
    <title>georgefinn</title>
    <desc>Created with Sketch.</desc>
    <g id="Page-1" stroke="none" stroke-width="1" fill="none" fill-rule="evenodd">
        <g id="Artboard" transform="translate(-56.000000, -38.000000)" fill="#000000">
            <g id="georgefinn" transform="translate(56.000000, 38.000000)">
                <path d="M23.48,8.64 L23.48,26.76 C23.48,34.28 19.64,38.04 11.96,38.04 C9.9067,38.04 7.96,37.7733 6.12,37.24 C4.28,36.7333 2.76,35.9867 1.56,35 L3.8,31.24 C4.7333,32.0133 5.9067,32.6267 7.32,33.08 C8.76,33.56 10.2133,33.8 11.68,33.8 C14.0267,33.8 15.7467,33.2667 16.84,32.2 C17.9333,31.1333 18.48,29.5067 18.48,27.32 L18.48,26.2 C17.6267,27.1333 16.5867,27.84 15.36,28.32 C14.1333,28.8 12.7867,29.04 11.32,29.04 C9.2933,29.04 7.4533,28.6133 5.8,27.76 C4.1733,26.88 2.88,25.6533 1.92,24.08 C0.98667,22.5067 0.52,20.7067 0.52,18.68 C0.52,16.6533 0.98667,14.8667 1.92,13.32 C2.88,11.7467 4.1733,10.5333 5.8,9.68 C7.4533,8.8267 9.2933,8.4 11.32,8.4 C12.8667,8.4 14.2667,8.6533 15.52,9.16 C16.8,9.6667 17.8667,10.44 18.72,11.48 L18.72,8.64 L23.48,8.64 Z M12.08,24.8 C13.9733,24.8 15.52,24.24 16.72,23.12 C17.9467,21.9733 18.56,20.4933 18.56,18.68 C18.56,16.8933 17.9467,15.44 16.72,14.32 C15.52,13.2 13.9733,12.64 12.08,12.64 C10.16,12.64 8.5867,13.2 7.36,14.32 C6.16,15.44 5.56,16.8933 5.56,18.68 C5.56,20.4933 6.16,21.9733 7.36,23.12 C8.5867,24.24 10.16,24.8 12.08,24.8 Z" id="Shape" fill-rule="nonzero"></path>
                <path d="M50.1334,19.44 C50.1334,19.7867 50.1068,20.28 50.0534,20.92 L33.2934,20.92 C33.5868,22.4933 34.3468,23.7467 35.5734,24.68 C36.8268,25.5867 38.3734,26.04 40.2134,26.04 C42.5601,26.04 44.4934,25.2667 46.0134,23.72 L48.6934,26.8 C47.7334,27.9467 46.5201,28.8133 45.0534,29.4 C43.5868,29.9867 41.9334,30.28 40.0934,30.28 C37.7468,30.28 35.6801,29.8133 33.8934,28.88 C32.1068,27.9467 30.7201,26.6533 29.7334,25 C28.7734,23.32 28.2934,21.4267 28.2934,19.32 C28.2934,17.24 28.7601,15.3733 29.6934,13.72 C30.6534,12.04 31.9734,10.7333 33.6534,9.8 C35.3334,8.8667 37.2268,8.4 39.3334,8.4 C41.4134,8.4 43.2668,8.8667 44.8934,9.8 C46.5468,10.7067 47.8268,12 48.7334,13.68 C49.6668,15.3333 50.1334,17.2533 50.1334,19.44 Z M39.3334,12.4 C37.7334,12.4 36.3734,12.88 35.2534,13.84 C34.1601,14.7733 33.4934,16.0267 33.2534,17.6 L45.3734,17.6 C45.1601,16.0533 44.5068,14.8 43.4134,13.84 C42.3201,12.88 40.9601,12.4 39.3334,12.4 Z" id="Shape" fill-rule="nonzero"></path>
                <path d="M64.5363,30.28 C62.3763,30.28 60.4296,29.8133 58.6963,28.88 C56.9629,27.9467 55.6029,26.6533 54.6163,25 C53.6563,23.32 53.1763,21.4267 53.1763,19.32 C53.1763,17.2133 53.6563,15.3333 54.6163,13.68 C55.6029,12.0267 56.9629,10.7333 58.6963,9.8 C60.4296,8.8667 62.3763,8.4 64.5363,8.4 C66.7229,8.4 68.6829,8.8667 70.4163,9.8 C72.1496,10.7333 73.4963,12.0267 74.4563,13.68 C75.4429,15.3333 75.9363,17.2133 75.9363,19.32 C75.9363,21.4267 75.4429,23.32 74.4563,25 C73.4963,26.6533 72.1496,27.9467 70.4163,28.88 C68.6829,29.8133 66.7229,30.28 64.5363,30.28 Z M64.5363,26 C66.3763,26 67.8963,25.3867 69.0963,24.16 C70.2963,22.9333 70.8963,21.32 70.8963,19.32 C70.8963,17.32 70.2963,15.7067 69.0963,14.48 C67.8963,13.2533 66.3763,12.64 64.5363,12.64 C62.6963,12.64 61.1763,13.2533 59.9763,14.48 C58.8029,15.7067 58.2163,17.32 58.2163,19.32 C58.2163,21.32 58.8029,22.9333 59.9763,24.16 C61.1763,25.3867 62.6963,26 64.5363,26 Z" id="Shape" fill-rule="nonzero"></path>
                <path d="M85.4775,11.76 C86.9175,9.52 89.4508,8.4 93.078,8.4 L93.078,13.16 C92.6508,13.08 92.2642,13.04 91.9175,13.04 C89.9708,13.04 88.4508,13.6133 87.3575,14.76 C86.2642,15.88 85.7175,17.5067 85.7175,19.64 L85.7175,30 L80.7175,30 L80.7175,8.64 L85.4775,8.64 L85.4775,11.76 Z" id="Path"></path>
                <path d="M118.324,8.64 L118.324,26.76 C118.324,34.28 114.484,38.04 106.804,38.04 C104.75,38.04 102.804,37.7733 100.964,37.24 C99.124,36.7333 97.604,35.9867 96.404,35 L98.644,31.24 C99.577,32.0133 100.75,32.6267 102.164,33.08 C103.604,33.56 105.057,33.8 106.524,33.8 C108.87,33.8 110.59,33.2667 111.684,32.2 C112.777,31.1333 113.324,29.5067 113.324,27.32 L113.324,26.2 C112.47,27.1333 111.43,27.84 110.204,28.32 C108.977,28.8 107.63,29.04 106.164,29.04 C104.137,29.04 102.297,28.6133 100.644,27.76 C99.017,26.88 97.724,25.6533 96.764,24.08 C95.83,22.5067 95.364,20.7067 95.364,18.68 C95.364,16.6533 95.83,14.8667 96.764,13.32 C97.724,11.7467 99.017,10.5333 100.644,9.68 C102.297,8.8267 104.137,8.4 106.164,8.4 C107.71,8.4 109.11,8.6533 110.364,9.16 C111.644,9.6667 112.71,10.44 113.564,11.48 L113.564,8.64 L118.324,8.64 Z M106.924,24.8 C108.817,24.8 110.364,24.24 111.564,23.12 C112.79,21.9733 113.404,20.4933 113.404,18.68 C113.404,16.8933 112.79,15.44 111.564,14.32 C110.364,13.2 108.817,12.64 106.924,12.64 C105.004,12.64 103.43,13.2 102.204,14.32 C101.004,15.44 100.404,16.8933 100.404,18.68 C100.404,20.4933 101.004,21.9733 102.204,23.12 C103.43,24.24 105.004,24.8 106.924,24.8 Z" id="Shape" fill-rule="nonzero"></path>
                <path d="M144.977,19.44 C144.977,19.7867 144.951,20.28 144.897,20.92 L128.137,20.92 C128.431,22.4933 129.191,23.7467 130.417,24.68 C131.671,25.5867 133.217,26.04 135.057,26.04 C137.404,26.04 139.337,25.2667 140.857,23.72 L143.537,26.8 C142.577,27.9467 141.364,28.8133 139.897,29.4 C138.431,29.9867 136.777,30.28 134.937,30.28 C132.591,30.28 130.524,29.8133 128.737,28.88 C126.951,27.9467 125.564,26.6533 124.577,25 C123.617,23.32 123.137,21.4267 123.137,19.32 C123.137,17.24 123.604,15.3733 124.537,13.72 C125.497,12.04 126.817,10.7333 128.497,9.8 C130.177,8.8667 132.071,8.4 134.177,8.4 C136.257,8.4 138.111,8.8667 139.737,9.8 C141.391,10.7067 142.671,12 143.577,13.68 C144.511,15.3333 144.977,17.2533 144.977,19.44 Z M134.177,12.4 C132.577,12.4 131.217,12.88 130.097,13.84 C129.004,14.7733 128.337,16.0267 128.097,17.6 L140.217,17.6 C140.004,16.0533 139.351,14.8 138.257,13.84 C137.164,12.88 135.804,12.4 134.177,12.4 Z" id="Shape" fill-rule="nonzero"></path>
                <path d="M158.46,4.08 C156.353,4.08 155.3,5.2267 155.3,7.52 L155.3,8.8 L161.18,8.8 L161.18,12.8 L155.46,12.8 L155.46,30 L150.46,30 L150.46,12.8 L150.46,8.8 L150.46,7.44 C150.46,5.1467 151.127,3.3467 152.46,2.04 C153.793,0.7067 155.673,0.04 158.1,0.04 C160.02,0.04 161.527,0.4267 162.62,1.2 L161.22,4.96 C160.367,4.3733 159.447,4.08 158.46,4.08 Z M167.74,8.64 L172.74,8.64 L172.74,30 L167.74,30 L167.74,8.64 Z" id="Shape" fill-rule="nonzero"></path>
                <path d="M191.431,8.4 C194.125,8.4 196.285,9.1867 197.911,10.76 C199.538,12.3333 200.351,14.6667 200.351,17.76 L200.351,30 L195.351,30 L195.351,18.4 C195.351,16.5333 194.911,15.1333 194.031,14.2 C193.151,13.24 191.898,12.76 190.271,12.76 C188.431,12.76 186.978,13.32 185.911,14.44 C184.845,15.5333 184.311,17.12 184.311,19.2 L184.311,30 L179.311,30 L179.311,8.64 L184.071,8.64 L184.071,11.4 C184.898,10.4133 185.938,9.6667 187.191,9.16 C188.445,8.6533 189.858,8.4 191.431,8.4 Z" id="Path"></path>
                <path d="M218.814,8.4 C221.507,8.4 223.667,9.1867 225.294,10.76 C226.921,12.3333 227.734,14.6667 227.734,17.76 L227.734,30 L222.734,30 L222.734,18.4 C222.734,16.5333 222.294,15.1333 221.414,14.2 C220.534,13.24 219.281,12.76 217.654,12.76 C215.814,12.76 214.361,13.32 213.294,14.44 C212.227,15.5333 211.694,17.12 211.694,19.2 L211.694,30 L206.694,30 L206.694,8.64 L211.454,8.64 L211.454,11.4 C212.281,10.4133 213.321,9.6667 214.574,9.16 C215.827,8.6533 217.241,8.4 218.814,8.4 Z" id="Path"></path>
            </g>
        </g>
    </g>
</svg>