<?xml version="1.0" encoding="UTF-8"?>
<svg width="118px" height="73px" viewBox="0 0 118 73" version="1.1" xmlns="http://www.w3.org/2000/svg" xmlns:xlink="http://www.w3.org/1999/xlink">
    <!-- Generator: Sketch 52.5 (67469) - http://www.bohemiancoding.com/sketch -->
    <title>Group 5</title>
    <desc>Created with Sketch.</desc>
    <defs>
        <filter x="-5.7%" y="-9.4%" width="112.3%" height="118.8%" filterUnits="objectBoundingBox" id="filter-1">
            <feOffset dx="0" dy="1" in="SourceAlpha" result="shadowOffsetOuter1"></feOffset>
            <feGaussianBlur stdDeviation="1" in="shadowOffsetOuter1" result="shadowBlurOuter1"></feGaussianBlur>
            <feColorMatrix values="0 0 0 0 0   0 0 0 0 0   0 0 0 0 0  0 0 0 0.5 0" type="matrix" in="shadowBlurOuter1" result="shadowMatrixOuter1"></feColorMatrix>
            <feMerge>
                <feMergeNode in="shadowMatrixOuter1"></feMergeNode>
                <feMergeNode in="SourceGraphic"></feMergeNode>
            </feMerge>
        </filter>
    </defs>
    <g id="Page-1" stroke="none" stroke-width="1" fill="none" fill-rule="evenodd">
        <g id="12.9″-iPad-Pro" transform="translate(-786.000000, -497.000000)">
            <g id="Group-5" filter="url(#filter-1)" transform="translate(788.000000, 498.000000)">
                <path d="M56.5000002,46 C75.0014479,46 90,31.0095762 90,12.5181543 C90,8.72791423 87.5063951,3.68773159 86.3454545,0.290392582 C82.0909758,-0.330764988 70.1700904,0.228304497 56.5000002,0.290392582 C42.8373077,0.352447067 29.6116111,0.214933508 25.2335863,0.290392582 C24.0074055,3.77132774 23,8.61589557 23,12.5181543 C23,31.0095762 37.9985517,46 56.5000002,46 Z" id="Path" fill="#FC8E36"></path>
                <path d="M36.8418669,13.3651225 C36.8418669,8.3149134 37.2496348,6.55585736 39.3563987,2.28949835 C34.4954097,3.05868152 30.5198978,1.12663579 25.9054808,2.52159511 C25.4727221,3.7144813 25.1137669,4.9415891 24.8235838,6.1947709 C24.8001005,6.29580788 24.7732628,6.39684445 24.7514572,6.49788101 C24.6826856,6.80262106 24.6256551,7.10899063 24.5669478,7.41699014 C24.5283685,7.61580422 24.4897891,7.81461831 24.4562419,8.01506234 C24.4109531,8.2823209 24.3706964,8.5512094 24.3304398,8.821727 C24.2952153,9.07431904 24.2616681,9.32854059 24.2314759,9.58439167 C24.2029609,9.82068725 24.1761231,10.0569828 24.1526399,10.2949083 C24.1224476,10.6094259 24.0989643,10.927203 24.078836,11.24498 C24.0654171,11.4340166 24.050321,11.6230531 24.0402566,11.8120897 C24.0150966,12.3270513 24,12.8436424 24,13.3651225 C24,31.3887791 39.0392085,46 57.5908082,46 C58.1527238,46 58.7112846,45.9853335 59.2664908,45.9576299 C59.5231267,45.9462225 59.7780854,45.921778 60.0330441,45.9038524 C60.3249045,45.8842969 60.6184426,45.8663709 60.9086257,45.8386674 C61.2290016,45.8093339 61.5460225,45.7669639 61.864721,45.7278529 C62.0844553,45.7001489 62.3058664,45.6773344 62.5256006,45.6447419 C62.8610726,45.5974828 63.19319,45.5388163 63.5253071,45.4817793 C63.6829791,45.4540758 63.8423284,45.4280018 64,45.3986683 C48.524678,42.4832687 36.8418669,29.2507106 36.8418669,13.3651225 Z" id="Path" fill="#ED7626"></path>
                <g id="Group" transform="translate(0.000000, 10.000000)" fill="#FC8E36">
                    <path d="M53.8828125,55.7470982 L53.8828125,44.0129464 C53.8828125,42.3321709 55.2777878,40.9707589 57,40.9707589 C58.7222123,40.9707589 60.1171875,42.3321709 60.1171875,44.0129464 L60.1171875,55.7470982 C60.1171875,57.4278738 58.7222122,58.7892857 57,58.7892857 C55.2777878,58.7892857 53.8828125,57.4278738 53.8828125,55.7470982 Z" id="Path"></path>
                    <path d="M98.859375,0.118526786 L110.882812,0.118526786 C112.605025,0.118526786 114,1.47993872 114,3.16071429 C114,4.84148985 112.605025,6.20290179 110.882812,6.20290179 L98.859375,6.20290179 C97.1371628,6.20290179 95.7421875,4.84148985 95.7421875,3.16071429 C95.7421875,1.47993872 97.1371628,0.118526786 98.859375,0.118526786 Z" id="Path"></path>
                    <path d="M3.1171875,0.118526786 L15.140625,0.118526786 C16.8628372,0.118526786 18.2578125,1.47993872 18.2578125,3.16071429 C18.2578125,4.84148985 16.8628372,6.20290179 15.140625,6.20290179 L3.1171875,6.20290179 C1.39497525,6.20290179 0,4.84148985 0,3.16071429 C0,1.47993872 1.39497525,0.118526786 3.1171875,0.118526786 Z" id="Path"></path>
                    <path d="M53.8828125,55.7470982 L53.8828125,44.0129464 C53.8828125,42.3321709 55.2777878,40.9707589 57,40.9707589 C58.7222123,40.9707589 60.1171875,42.3321709 60.1171875,44.0129464 L60.1171875,55.7470982 C60.1171875,57.4278738 58.7222122,58.7892857 57,58.7892857 C55.2777878,58.7892857 53.8828125,57.4278738 53.8828125,55.7470982 Z" id="Path"></path>
                    <path d="M16.695845,38.1936104 L25.1972654,29.8967354 C26.4151278,28.7081753 28.3886721,28.7081753 29.6048474,29.8967354 C30.8227094,31.0836493 30.8227094,33.0097098 29.6048474,34.1982703 L21.103427,42.4951453 C19.8855645,43.6837054 17.9120207,43.6837054 16.695845,42.4951453 C15.477983,41.3082309 15.477983,39.3821709 16.695845,38.1936104 Z" id="Path"></path>
                    <path d="M97.3058417,38.1936104 L88.8027346,29.8967354 C87.5865588,28.7081753 85.6113279,28.7081753 84.3951526,29.8967354 C83.1772906,31.0836493 83.1772906,33.0097098 84.3951526,34.1982703 L92.896573,42.4951453 C94.1144355,43.6837054 96.0879793,43.6837054 97.3058417,42.4951453 C98.522017,41.3082309 98.522017,39.3821709 97.3058417,38.1936104 Z" id="Path"></path>
                </g>
            </g>
        </g>
    </g>
</svg>