<?xml version="1.0" encoding="UTF-8"?>
<svg width="83px" height="120px" viewBox="0 0 83 120" version="1.1" xmlns="http://www.w3.org/2000/svg" xmlns:xlink="http://www.w3.org/1999/xlink">
    <!-- Generator: Sketch 52.5 (67469) - http://www.bohemiancoding.com/sketch -->
    <title>043-weathercock</title>
    <desc>Created with Sketch.</desc>
    <defs>
        <filter x="-16.0%" y="-10.7%" width="132.0%" height="121.4%" filterUnits="objectBoundingBox" id="filter-1">
            <feOffset dx="0" dy="2" in="SourceAlpha" result="shadowOffsetOuter1"></feOffset>
            <feGaussianBlur stdDeviation="2" in="shadowOffsetOuter1" result="shadowBlurOuter1"></feGaussianBlur>
            <feColorMatrix values="0 0 0 0 0   0 0 0 0 0   0 0 0 0 0  0 0 0 0.5 0" type="matrix" in="shadowBlurOuter1" result="shadowMatrixOuter1"></feColorMatrix>
            <feMerge>
                <feMergeNode in="shadowMatrixOuter1"></feMergeNode>
                <feMergeNode in="SourceGraphic"></feMergeNode>
            </feMerge>
        </filter>
    </defs>
    <g id="Page-1" stroke="none" stroke-width="1" fill="none" fill-rule="evenodd">
        <g id="12.9″-iPad-Pro" transform="translate(-313.000000, -705.000000)">
            <g id="043-weathercock" filter="url(#filter-1)" transform="translate(317.000000, 707.000000)">
                <g id="Group-4">
                    <path d="" id="Path" fill="#3F6DC9"></path>
                    <path d="M56.5486157,76.4887933 C56.0492565,76.2233309 55.4494671,76.5887817 55.4494671,77.1584346 L55.4494671,80.7678781 L36.5323937,80.7678781 L36.5323937,71.0584326 L32.566113,71.0584326 L32.566113,80.7678781 L12.6419514,80.7678781 L10.1870001,76.6366635 C9.8905927,76.1381293 9.35705912,75.8332349 8.78167995,75.8332349 L4.14168256,75.8332349 C2.80052589,75.8332349 2.02777417,77.3717901 2.82005391,78.4646221 L4.71496939,81.0791099 C5.39077839,82.0113968 5.3998451,83.2753358 4.73658975,84.217481 L2.75170574,87.0368747 C1.98034898,88.1325232 2.75589041,89.6492499 4.0865856,89.6492499 L8.78167995,89.6492499 C9.35705912,89.6492499 9.8905927,89.3443555 10.1870001,88.8465254 L12.3483335,85.208212 L32.566113,85.208212 L32.566113,111.92895 C33.1969926,111.959202 33.6079186,111.893316 34.2391304,111.896612 C34.9302432,111.900221 35.8416446,111.957656 36.5323937,111.92895 L36.5323937,85.2089161 L55.4494671,85.2089161 L55.4494671,88.3240504 C55.4494671,88.8944072 56.0492565,89.2598581 56.5486157,88.9936917 L64.9749572,84.510405 C66.3851592,83.7604914 66.3851592,81.7226977 64.9749572,80.97208 L56.5486157,76.4887933 Z" id="Path" fill="#C992FA"></path>
                    <path d="M38.9751295,83.3098865 L12.34559,83.3098865 L10.1848554,86.9873247 C9.88853011,87.4913174 9.35514434,87.7995502 8.77992458,87.7995502 L4.08613099,87.7995502 C3.53461717,87.7995502 3.08141377,87.5333168 2.79066618,87.1460682 L2.75162095,87.2023047 C1.98047789,88.3099497 2.75580446,89.8439952 4.08613099,89.8439952 L8.77992458,89.8439952 C9.35514434,89.8439952 9.88853011,89.5357624 10.1848554,89.0317697 L12.34559,85.3543315 L55.4347826,85.3543315 L55.4347826,83.3098865 L38.9751295,83.3098865 Z" id="Path" fill="#A744FF"></path>
                    <path d="M32.6086957,71.0584326 L32.6086957,75.9194931 C33.339768,75.9507087 34.0758576,75.9647864 34.8183976,75.9568294 C35.4448264,75.9500967 36.0669547,75.92745 36.6847826,75.89195 L36.6847826,71.0584326 L32.6086957,71.0584326 Z" id="Path" fill="#A744FF"></path>
                    <path d="M68.5365292,5.7602647 C67.75552,4.73060877 66.6239958,4.1850087 65.4695209,4.1186239 C64.7594494,4.07782486 64.1321385,3.61797183 63.8762068,2.95896439 C63.2057769,1.22811888 61.51927,0 59.5420582,0 C57.5711055,0 55.8887715,1.22051224 55.2134734,2.94236819 C54.9533688,3.6069077 54.3246669,4.07505883 53.6090317,4.1186239 C51.9559074,4.21889257 50.435617,5.30594374 49.9056715,7.02434219 C49.3145247,8.94258635 50.2429728,11.0454633 52.0616183,11.9160724 C52.3933559,12.0744277 52.7348301,12.1850691 53.0776951,12.2514539 C54.1932237,9.92798574 56.4722681,8.25176943 59.1936293,8.12453189 C62.2251687,7.98208125 64.8672468,9.7060116 66.0627541,12.2390068 C67.0287573,12.0405439 67.9377324,11.4970182 68.5872982,10.605664 C69.5498241,9.28626597 69.5240919,7.06168356 68.5365292,5.7602647 Z" id="Path" fill="#EA4B57"></path>
                    <path d="M52.377623,9.52781501 C52.9308599,7.78072088 54.5179669,6.67551683 56.2437464,6.57357376 C56.9908338,6.52928118 57.6471672,6.05331213 57.9187033,5.37767535 C58.6236809,3.62706599 60.3792277,2.386172 62.4375298,2.386172 C63.1374251,2.386172 63.801019,2.53240765 64.4021739,2.79113226 C63.6471001,1.1473874 61.9510881,0 59.9733755,0 C57.9157992,0 56.1595264,1.24089381 55.454549,2.99150336 C55.1830127,3.66714013 54.5266793,4.14310901 53.7795919,4.18740158 C52.0538126,4.28934465 50.4667054,5.3945487 49.9134687,7.14164301 C49.296341,9.09192028 50.2655944,11.2299136 52.1641696,12.1150611 C52.2730743,12.1656811 52.3834313,12.2099737 52.4945142,12.2514539 C52.1518269,11.4014592 52.08721,10.4446 52.377623,9.52781501 Z" id="Path" fill="#D63649"></path>
                    <path d="M67.6630435,15.5185083 L67.6630435,22.8693806 L74.7906711,19.4246938 C75.0696582,19.2902309 75.0696582,18.9111665 74.7913791,18.7760278 C72.9354769,17.8766795 67.6630435,15.5185083 67.6630435,15.5185083 Z" id="Path" fill="#EA4B57"></path>
                    <path d="M74.7916368,18.5505381 C74.4836068,18.3929838 74.0799814,18.1926546 73.6239553,17.968799 L67.6630435,21.0079581 L67.6630435,22.8693806 L74.7909288,19.2349371 C75.0692179,19.093067 75.069926,18.6931212 74.7916368,18.5505381 Z" id="Path" fill="#D63649"></path>
                    <path d="M59.4786649,7.35995925 C55.2792475,7.56078572 52.0490881,11.2361933 52.0490881,15.5083829 L52.0490881,26.5232113 C52.0490881,32.5843222 47.2133103,37.497447 41.2484835,37.497447 L20.9059785,37.497447 C16.8341133,37.497447 13.5324685,34.1432191 13.5324685,30.004914 L13.5324685,21.1016111 C13.5324685,17.3044258 10.5034495,14.2265123 6.76588394,14.2265123 C3.02901897,14.2265123 0,17.3044258 0,21.1016111 L0,37.497447 C0,56.6357736 15.3903884,72.1214816 34.2807584,71.8722289 C52.8725719,71.6272492 67.6630435,55.878758 67.6630435,36.9846988 L67.6630435,15.2840555 C67.6637445,10.775432 63.9619214,7.14488996 59.4786649,7.35995925 Z" id="Path" fill="#FDD33A"></path>
                    <path d="M51.3586957,45.7387612 C51.3586957,57.4667473 43.6944281,66.9746146 34.2391304,66.9746146 C24.7845313,66.9746146 17.1195652,57.4667473 17.1195652,45.7387612 L51.3586957,45.7387612 Z" id="Path" fill="#E8BB2A"></path>
                    <path d="M9.45123084,37.7812645 L9.45123084,21.52079 C9.45123084,19.6244528 10.2149315,17.9089209 11.447156,16.6729467 C10.233032,15.4546295 8.56361152,14.7017447 6.72154054,14.7017447 C3.00955153,14.7017447 0,17.7549537 0,21.52079 L0,37.7812645 C0,56.7615879 15.2879367,72.1194483 34.0525563,71.8722534 C35.4985056,71.853184 36.9214812,71.7401807 38.3152174,71.5381873 C22.0004269,69.2004308 9.45123084,54.9775478 9.45123084,37.7812645 Z" id="Path" fill="#E8BB2A"></path>
                    <path d="M51.3586957,45.7387612 C51.3586957,55.6627703 43.6944281,63.7075602 34.2391304,63.7075602 C24.7845313,63.7075602 17.1195652,55.6627703 17.1195652,45.7387612 L51.3586957,45.7387612 Z" id="Path" fill="#FC8E36"></path>
                    <path d="M25.2293285,45.7387612 L16.3043478,45.7387612 C16.3043478,55.6627703 24.1184237,63.7075602 33.7569471,63.7075602 C35.3342896,63.7075602 36.8617837,63.491263 38.3152174,63.0872637 C30.8052162,61.095863 25.2528285,54.0871002 25.2293285,45.7387612 Z" id="Path" fill="#ED7626"></path>
                    <path d="M61.9565217,19.1942796 C61.9565217,19.8707073 61.4091773,20.4190898 60.7340302,20.4190898 C60.058883,20.4190898 59.5108696,19.8707073 59.5108696,19.1942796 C59.5108696,18.5171814 60.058883,17.968799 60.7340302,17.968799 C61.4091773,17.968799 61.9565217,18.5171814 61.9565217,19.1942796 Z" id="Path" fill="#393991"></path>
                </g>
            </g>
        </g>
    </g>
</svg>