<?xml version="1.0" encoding="UTF-8"?>
<svg width="88px" height="50px" viewBox="0 0 88 50" version="1.1" xmlns="http://www.w3.org/2000/svg" xmlns:xlink="http://www.w3.org/1999/xlink">
    <!-- Generator: Sketch 52.5 (67469) - http://www.bohemiancoding.com/sketch -->
    <title>Group 8</title>
    <desc>Created with Sketch.</desc>
    <defs>
        <path d="M9.78400418,14.0387777 C10.3289052,13.9864469 10.7428097,13.5758506 10.7912454,13.075688 C11.4913605,5.75338798 18.201898,0.00604656101 26.3875208,8.50945172e-06 C31.489775,-0.00502350075 36.024011,2.22205889 38.8905201,5.67287891 C39.1921422,6.03617603 39.7161277,6.19417502 40.1828712,6.03416343 C41.2363462,5.67287891 42.3767853,5.47462538 43.5689626,5.47261253 C48.466466,5.46959337 52.5163459,8.79562459 53.1636222,13.1159426 C53.234074,13.5828952 53.6490793,13.9512243 54.1620566,13.9985232 C59.6815178,14.5037178 63.9944914,18.7616411 63.9999954,23.9464253 C64.0054993,29.4753859 59.1112981,33.9607475 53.0700531,33.9657795 L10.949762,33.9999958 C4.90741593,34.0050275 0.00550932883,29.5277168 5.29313996e-06,23.9997628 C-0.00549874255,18.8250421 4.28215588,14.5671185 9.78400418,14.0387777 Z" id="path-1"></path>
        <filter x="-10.9%" y="-14.7%" width="121.9%" height="141.2%" filterUnits="objectBoundingBox" id="filter-2">
            <feOffset dx="0" dy="2" in="SourceAlpha" result="shadowOffsetOuter1"></feOffset>
            <feGaussianBlur stdDeviation="2" in="shadowOffsetOuter1" result="shadowBlurOuter1"></feGaussianBlur>
            <feColorMatrix values="0 0 0 0 0   0 0 0 0 0   0 0 0 0 0  0 0 0 0.5 0" type="matrix" in="shadowBlurOuter1"></feColorMatrix>
        </filter>
        <path d="M4.89200209,7.4322941 C5.16445259,7.40458951 5.37140486,7.18721502 5.39562268,6.92242308 C5.74568024,3.04591128 9.10094899,0.00320112053 13.1937604,4.50500385e-06 C15.7448875,-0.0026595004 18.0120055,1.17638412 19.4452601,3.00328883 C19.5960711,3.1956226 19.8580639,3.27926913 20.0914356,3.19455711 C20.6181731,3.00328883 21.1883927,2.89833108 21.7844813,2.89726545 C24.233233,2.89566708 26.258173,4.65650713 26.5818111,6.94373431 C26.617037,7.19094451 26.8245396,7.38594229 27.0810283,7.41098288 C29.8407589,7.67843882 31.9972457,9.93263352 31.9999977,12.6775193 C32.0027497,15.6046161 29.5556491,17.9792193 26.5350266,17.9818833 L5.474881,17.9999978 C2.45370797,18.0026616 0.00275466441,15.6323207 2.64656998e-06,12.7057568 C-0.00274937127,9.96619874 2.14107794,7.71200389 4.89200209,7.4322941 Z" id="path-3"></path>
        <filter x="-21.9%" y="-27.8%" width="143.8%" height="177.8%" filterUnits="objectBoundingBox" id="filter-4">
            <feOffset dx="0" dy="2" in="SourceAlpha" result="shadowOffsetOuter1"></feOffset>
            <feGaussianBlur stdDeviation="2" in="shadowOffsetOuter1" result="shadowBlurOuter1"></feGaussianBlur>
            <feColorMatrix values="0 0 0 0 0   0 0 0 0 0   0 0 0 0 0  0 0 0 0.5 0" type="matrix" in="shadowBlurOuter1"></feColorMatrix>
        </filter>
    </defs>
    <g id="Page-1" stroke="none" stroke-width="1" fill="none" fill-rule="evenodd">
        <g id="12.9″-iPad-Pro" transform="translate(-762.000000, -577.000000)">
            <g id="Group-8" transform="translate(766.000000, 579.000000)">
                <g id="Group-2">
                    <g id="Path">
                        <use fill="black" fill-opacity="1" filter="url(#filter-2)" xlink:href="#path-1"></use>
                        <use fill="#DDFCFF" fill-rule="evenodd" xlink:href="#path-1"></use>
                    </g>
                    <path d="M7.87407093,24.4491665 C7.86866966,19.7859538 11.4583968,15.9056456 16.2029293,15.0784639 C17.181651,14.9083983 17.909751,14.1526642 18.0566673,13.234915 C19.1034459,6.66073098 25.1767066,1.61311026 32.5214417,1.60606607 C32.6813212,1.60606607 32.8412007,1.60908505 33,1.61311026 C30.8740346,0.581648755 28.4585577,-0.00200754825 25.8950843,5.18849638e-06 C17.8578982,0.00704912309 11.2704302,5.76008887 10.5887817,13.0879945 C10.5423304,13.5830961 10.131829,13.9866239 9.60141785,14.0379455 C4.20224349,14.5672612 -0.00539612656,18.8249334 5.19436087e-06,23.9993485 C0.00540651529,29.5269762 4.81583512,34.0040225 10.7454206,33.9999973 L18.1009582,33.9677956 C12.4576437,33.9728273 7.878392,29.7111299 7.87407093,24.4491665 Z" id="Path" fill="#5DC1D8"></path>
                </g>
                <g id="Group-2" transform="translate(48.000000, 24.000000)">
                    <g id="Path">
                        <use fill="black" fill-opacity="1" filter="url(#filter-4)" xlink:href="#path-3"></use>
                        <use fill="#DDFCFF" fill-rule="evenodd" xlink:href="#path-3"></use>
                    </g>
                    <path d="M4.05633957,12.9436764 C4.0535571,10.4749167 5.90281048,8.42063593 8.34696356,7.98271618 C8.85115353,7.89268147 9.22623538,7.49258695 9.30191954,7.00671972 C9.84116912,3.52626934 12.9698186,0.85399955 16.75347,0.850270272 C16.8358321,0.850270272 16.9181943,0.851868554 17,0.85399955 C15.9048057,0.307931694 14.6604691,-0.00106281966 13.3398919,2.74685103e-06 C9.19952333,0.00373188869 5.8059792,3.04945881 5.45482694,6.92893827 C5.4308975,7.19105086 5.21942706,7.40468324 4.94618495,7.43185348 C2.1647921,7.71207947 -0.00277982278,9.96614121 2.67588287e-06,12.7055375 C0.00278517454,15.6319286 2.48088476,18.0021296 5.53551971,17.9999986 L9.32473605,17.9829506 C6.41757401,17.9856144 4.05856557,15.7294217 4.05633957,12.9436764 Z" id="Path" fill="#5DC1D8"></path>
                </g>
            </g>
        </g>
    </g>
</svg>