<?xml version="1.0" encoding="UTF-8"?>
<svg width="83px" height="52px" viewBox="0 0 83 52" version="1.1" xmlns="http://www.w3.org/2000/svg" xmlns:xlink="http://www.w3.org/1999/xlink">
    <!-- Generator: Sketch 52.5 (67469) - http://www.bohemiancoding.com/sketch -->
    <title>Group 3</title>
    <desc>Created with Sketch.</desc>
    <defs>
        <path d="M11.4656299,18.16783 C12.1041858,18.1001077 12.5892301,17.5687478 12.6459907,16.9214786 C13.4664381,7.44556091 21.3303492,0.00782496131 30.9228759,1.10122316e-05 C36.9020801,-0.00650100097 42.2156379,2.87560562 45.5748283,7.3413727 C45.9282916,7.81152192 46.5423372,8.0159912 47.0893021,7.80891738 C48.3238432,7.3413727 49.6602953,7.08480932 51.057378,7.08220444 C56.7966399,7.0782973 61.5425929,11.382573 62.3011197,16.9735727 C62.3836805,17.5778644 62.8700148,18.0545256 63.4711601,18.1157359 C69.9392787,18.7695171 74.9935446,24.2797708 74.9999946,30.9894916 C75.0064445,38.1446171 69.2710525,43.9492027 62.1914685,43.9557147 L12.8317523,43.9999945 C5.75087805,44.0065062 0.00645624472,38.2123394 6.20289839e-06,31.0585165 C-0.00644383892,24.3618191 5.01815142,18.8515651 11.4656299,18.16783 Z" id="path-1"></path>
        <filter x="-9.3%" y="-11.4%" width="118.7%" height="131.8%" filterUnits="objectBoundingBox" id="filter-2">
            <feOffset dx="0" dy="2" in="SourceAlpha" result="shadowOffsetOuter1"></feOffset>
            <feGaussianBlur stdDeviation="2" in="shadowOffsetOuter1" result="shadowBlurOuter1"></feGaussianBlur>
            <feColorMatrix values="0 0 0 0 0   0 0 0 0 0   0 0 0 0 0  0 0 0 0.5 0" type="matrix" in="shadowBlurOuter1"></feColorMatrix>
        </filter>
    </defs>
    <g id="Page-1" stroke="none" stroke-width="1" fill="none" fill-rule="evenodd">
        <g id="12.9″-iPad-Pro" transform="translate(-320.000000, -509.000000)">
            <g id="Group-3" transform="translate(324.000000, 511.000000)">
                <g id="Path">
                    <use fill="black" fill-opacity="1" filter="url(#filter-2)" xlink:href="#path-1"></use>
                    <use fill="#DDFCFF" fill-rule="evenodd" xlink:href="#path-1"></use>
                </g>
                <path d="M9.30572019,31.6400978 C9.29933687,25.6053519 13.5417417,20.5837767 19.1489164,19.5133062 C20.3055875,19.2932214 21.1660694,18.3152126 21.3396978,17.1275371 C22.5767998,8.61976951 29.7542896,2.08755446 38.4344311,2.07843844 C38.6233796,2.07843844 38.8123281,2.08234535 39,2.08755446 C36.4874955,0.752721919 33.632841,-0.00259800362 30.6032815,6.71452473e-06 C21.1047888,0.00912239458 13.3195994,7.45423265 12.5140147,16.9374047 C12.4591178,17.5781243 11.9739797,18.1003368 11.3471302,18.166753 C4.96628777,18.8517498 -0.00637724049,24.3616785 6.13879012e-06,31.0579805 C0.00638951807,38.211381 5.69144151,44.0052056 12.6991335,43.9999965 L21.3920415,43.9583237 C14.7226698,43.9648353 9.3108269,38.4496975 9.30572019,31.6400978 Z" id="Path" fill="#5DC1D8"></path>
            </g>
        </g>
    </g>
</svg>