<?xml version="1.0" encoding="UTF-8"?>
<svg width="143px" height="78px" viewBox="0 0 143 78" version="1.1" xmlns="http://www.w3.org/2000/svg" xmlns:xlink="http://www.w3.org/1999/xlink">
    <!-- Generator: Sketch 52.5 (67469) - http://www.bohemiancoding.com/sketch -->
    <title>Group 7</title>
    <desc>Created with Sketch.</desc>
    <defs>
        <path d="M58,16.1389038 C56.5806061,13.7986298 54.8537471,11.6156273 52.8381423,9.64033334 C46.4927544,3.42375124 38.0568842,0 29.0837691,0 C20.1106539,0 11.6747838,3.42375124 5.32986377,9.64033334 C3.2332978,11.6944924 1.45074877,13.9742421 0,16.4208922 C2.12417702,23.9034416 7.1868222,30.1855917 13.8939614,34 L13.8939614,32.9142302 C13.8939614,24.7076815 20.7082688,18.0312061 29.0837691,18.0312061 C37.4597373,18.0312061 44.2740446,24.7076815 44.2740446,32.9142302 L44.2740446,33.8578595 C50.9423412,29.9820099 55.9492965,23.6530909 58,16.1389038 Z" id="path-1"></path>
        <filter x="-12.1%" y="-14.7%" width="124.1%" height="141.2%" filterUnits="objectBoundingBox" id="filter-2">
            <feOffset dx="0" dy="2" in="SourceAlpha" result="shadowOffsetOuter1"></feOffset>
            <feGaussianBlur stdDeviation="2" in="shadowOffsetOuter1" result="shadowBlurOuter1"></feGaussianBlur>
            <feColorMatrix values="0 0 0 0 0   0 0 0 0 0   0 0 0 0 0  0 0 0 0.5 0" type="matrix" in="shadowBlurOuter1"></feColorMatrix>
        </filter>
        <path d="M14.064506,21.4710719 C14.8478012,21.3910364 15.442789,20.7630656 15.5124152,19.9981111 C16.5188307,8.79929926 26.1652283,0.00924768155 37.9320612,1.30144556e-05 C45.2665516,-0.00768300114 51.7845158,3.398443 55.9051227,8.67616774 C56.3387044,9.23179863 57.0919336,9.47344414 57.7628773,9.22872054 C59.2772477,8.67616774 60.9166289,8.37295647 62.6303837,8.36987798 C69.6705449,8.36526045 75.4922472,13.4521317 76.4227069,20.0596769 C76.5239814,20.7738397 77.1205515,21.3371666 77.8579563,21.4095061 C85.7921819,22.1821566 91.9920814,28.6942746 91.9999933,36.6239446 C92.0079053,45.080002 84.9724911,51.9399668 76.2882013,51.9476628 L15.7402829,51.9999935 C7.0544104,52.0076891 0.00791966019,45.1600375 7.60888869e-06,36.7055195 C-0.00790444241,28.7912408 6.15559908,22.2791224 14.064506,21.4710719 Z" id="path-3"></path>
        <filter x="-7.6%" y="-9.6%" width="115.2%" height="126.9%" filterUnits="objectBoundingBox" id="filter-4">
            <feOffset dx="0" dy="2" in="SourceAlpha" result="shadowOffsetOuter1"></feOffset>
            <feGaussianBlur stdDeviation="2" in="shadowOffsetOuter1" result="shadowBlurOuter1"></feGaussianBlur>
            <feColorMatrix values="0 0 0 0 0   0 0 0 0 0   0 0 0 0 0  0 0 0 0.5 0" type="matrix" in="shadowBlurOuter1"></feColorMatrix>
        </filter>
        <path d="M7.94950339,11.5613464 C8.39223545,11.5182503 8.7285329,11.1801122 8.76788685,10.7682137 C9.3367304,4.73808422 14.7890421,0.00497952083 21.4398607,7.00778377e-06 C25.5854422,-0.00413700062 29.2695089,1.82993085 31.5985476,4.67178263 C31.8436155,4.97096849 32.2693538,5.10108531 32.6485828,4.96931106 C33.5045313,4.67178263 34.4311381,4.50851502 35.3997821,4.50685737 C39.3790036,4.50437101 42.669531,7.24345554 43.195443,10.8013645 C43.2526851,11.1859137 43.5898769,11.4892436 44.006671,11.5281956 C48.4912332,11.9442382 51.9955242,15.4507633 51.9999962,19.7205856 C52.0044682,24.2738472 48.0279297,27.9676744 43.1194181,27.9718184 L8.89668162,27.9999965 C3.98727545,28.0041403 0.00447632967,24.3169433 4.30067622e-06,19.7645105 C-0.00446772832,15.5029758 3.47925165,11.9964505 7.94950339,11.5613464 Z" id="path-5"></path>
        <filter x="-13.5%" y="-17.9%" width="126.9%" height="150.0%" filterUnits="objectBoundingBox" id="filter-6">
            <feOffset dx="0" dy="2" in="SourceAlpha" result="shadowOffsetOuter1"></feOffset>
            <feGaussianBlur stdDeviation="2" in="shadowOffsetOuter1" result="shadowBlurOuter1"></feGaussianBlur>
            <feColorMatrix values="0 0 0 0 0   0 0 0 0 0   0 0 0 0 0  0 0 0 0.5 0" type="matrix" in="shadowBlurOuter1"></feColorMatrix>
        </filter>
    </defs>
    <g id="Page-1" stroke="none" stroke-width="1" fill="none" fill-rule="evenodd">
        <g id="12.9″-iPad-Pro" transform="translate(-488.000000, -656.000000)">
            <g id="Group-7" transform="translate(492.000000, 658.000000)">
                <g id="Group-6" transform="translate(39.000000, 0.000000)">
                    <g id="Path">
                        <use fill="black" fill-opacity="1" filter="url(#filter-2)" xlink:href="#path-1"></use>
                        <use fill="#393991" fill-rule="evenodd" xlink:href="#path-1"></use>
                    </g>
                    <path d="M7.81331198,29 C9.43583506,19.2949293 18.3391885,11.8505366 29.0467083,11.8505366 C39.681099,11.8505366 48.535385,19.1936116 50.2451912,28.8013817 C52.0762503,27.0856765 53.6770705,25.1512681 55,23.0418971 C53.6327213,19.5631755 51.4784786,16.3732316 48.6212528,13.6702373 C43.3927561,8.723972 36.4412427,6 29.0467083,6 C21.652174,6 14.7006605,8.723972 9.47216381,13.6702373 C6.54841399,16.4361647 4.36114536,19.7118045 3,23.2851488 C4.34416053,25.3815761 5.96432463,27.3008092 7.81331198,29 Z" id="Path" fill="#EA4B57"></path>
                    <path d="M51,29.4301867 C49.2673012,19.5507249 40.2949431,12 29.5176904,12 C18.6668076,12 9.64424705,19.6549077 8,29.6344216 C9.80059159,31.3128194 11.8139456,32.7823929 13.9989437,34 L13.9989437,32.913195 C13.9989437,24.6988213 20.9608167,18.01598 29.5181685,18.01598 C38.0750423,18.01598 45.0369151,24.6988213 45.0369151,32.913195 L45.0369151,33.8577239 C47.2123511,32.6190048 49.213752,31.1287786 51,29.4301867 Z" id="Path" fill="#FDD33A"></path>
                </g>
                <g id="Group-3" transform="translate(0.000000, 18.000000)">
                    <g id="Path">
                        <use fill="black" fill-opacity="1" filter="url(#filter-4)" xlink:href="#path-3"></use>
                        <use fill="#DDFCFF" fill-rule="evenodd" xlink:href="#path-3"></use>
                    </g>
                    <path d="M11.4531941,37.3928429 C11.4453377,30.2608704 16.666759,24.3262816 23.5678971,23.0611801 C24.9914923,22.8010798 26.050547,21.6452512 26.2642434,20.2416347 C27.7868305,10.1870003 36.6206642,2.46710981 47.3039152,2.45633634 C47.5364672,2.45633634 47.7690192,2.4609536 48,2.46710981 C44.9076868,0.889580449 41.3942658,-0.00307036792 37.6655772,7.93534741e-06 C25.9751247,0.0107810118 16.393353,8.80954768 15.4018643,20.0169328 C15.3342988,20.7741469 14.7372058,21.3913071 13.9656987,21.4697989 C6.11235417,22.2793407 -0.00784891137,28.7910746 7.555434e-06,36.704886 C0.00786402223,45.1589048 7.00485109,52.0061521 15.6297027,51.9999959 L26.3286665,51.9507462 C18.120209,51.9584417 11.4594793,45.4405516 11.4531941,37.3928429 Z" id="Path" fill="#5DC1D8"></path>
                </g>
                <g id="Group-2" transform="translate(83.000000, 10.000000)">
                    <g id="Path">
                        <use fill="black" fill-opacity="1" filter="url(#filter-6)" xlink:href="#path-5"></use>
                        <use fill="#DDFCFF" fill-rule="evenodd" xlink:href="#path-5"></use>
                    </g>
                    <path d="M6.44242167,20.1346077 C6.43800245,16.2943149 9.37505193,13.098767 13.2569421,12.4175585 C14.0577144,12.2775045 14.6534327,11.6551353 14.7736369,10.8993418 C15.6300921,5.48530787 20.5991236,1.32844375 26.6084523,1.32264265 C26.7392628,1.32264265 26.8700733,1.32512886 27,1.32844375 C25.2605738,0.479004857 23.2842745,-0.00165327503 21.1868872,4.27287938e-06 C14.6110076,0.00580516019 9.22126109,4.74360259 8.66354867,10.7783484 C8.62554308,11.1860791 8.28967827,11.5183962 7.85570551,11.560661 C3.43819922,11.9965681 -0.00441501264,15.5028863 4.24993162e-06,19.7641694 C0.00442351251,24.3163333 3.94022874,28.0033127 8.79170778,27.9999978 L14.8098749,27.9734787 C10.1926175,27.9776225 6.44595709,24.4679893 6.44242167,20.1346077 Z" id="Path" fill="#5DC1D8"></path>
                </g>
            </g>
        </g>
    </g>
</svg>