<?xml version="1.0" encoding="UTF-8"?>
<svg width="130px" height="158px" viewBox="0 0 130 158" version="1.1" xmlns="http://www.w3.org/2000/svg" xmlns:xlink="http://www.w3.org/1999/xlink">
    <!-- Generator: Sketch 52.5 (67469) - http://www.bohemiancoding.com/sketch -->
    <title>Group 9</title>
    <desc>Created with Sketch.</desc>
    <defs>
        <filter x="-17.4%" y="-17.1%" width="134.8%" height="134.3%" filterUnits="objectBoundingBox" id="filter-1">
            <feOffset dx="0" dy="2" in="SourceAlpha" result="shadowOffsetOuter1"></feOffset>
            <feGaussianBlur stdDeviation="2" in="shadowOffsetOuter1" result="shadowBlurOuter1"></feGaussianBlur>
            <feColorMatrix values="0 0 0 0 0   0 0 0 0 0   0 0 0 0 0  0 0 0 0.5 0" type="matrix" in="shadowBlurOuter1" result="shadowMatrixOuter1"></feColorMatrix>
            <feMerge>
                <feMergeNode in="shadowMatrixOuter1"></feMergeNode>
                <feMergeNode in="SourceGraphic"></feMergeNode>
            </feMerge>
        </filter>
        <filter x="-19.1%" y="-17.2%" width="138.6%" height="135.0%" filterUnits="objectBoundingBox" id="filter-2">
            <feOffset dx="0" dy="2" in="SourceAlpha" result="shadowOffsetOuter1"></feOffset>
            <feGaussianBlur stdDeviation="2" in="shadowOffsetOuter1" result="shadowBlurOuter1"></feGaussianBlur>
            <feColorMatrix values="0 0 0 0 0   0 0 0 0 0   0 0 0 0 0  0 0 0 0.5 0" type="matrix" in="shadowBlurOuter1" result="shadowMatrixOuter1"></feColorMatrix>
            <feMerge>
                <feMergeNode in="shadowMatrixOuter1"></feMergeNode>
                <feMergeNode in="SourceGraphic"></feMergeNode>
            </feMerge>
        </filter>
        <filter x="-19.1%" y="-17.0%" width="138.6%" height="134.1%" filterUnits="objectBoundingBox" id="filter-3">
            <feOffset dx="0" dy="2" in="SourceAlpha" result="shadowOffsetOuter1"></feOffset>
            <feGaussianBlur stdDeviation="2" in="shadowOffsetOuter1" result="shadowBlurOuter1"></feGaussianBlur>
            <feColorMatrix values="0 0 0 0 0   0 0 0 0 0   0 0 0 0 0  0 0 0 0.5 0" type="matrix" in="shadowBlurOuter1" result="shadowMatrixOuter1"></feColorMatrix>
            <feMerge>
                <feMergeNode in="shadowMatrixOuter1"></feMergeNode>
                <feMergeNode in="SourceGraphic"></feMergeNode>
            </feMerge>
        </filter>
    </defs>
    <g id="Page-1" stroke="none" stroke-width="1" fill="none" fill-rule="evenodd">
        <g id="12.9″-iPad-Pro" transform="translate(-825.000000, -668.000000)">
            <g id="Group-9" transform="translate(819.000000, 660.000000)">
                <g id="Group-3" filter="url(#filter-1)" transform="translate(46.000000, 90.000000)">
                    <path d="M45.540305,28.0212653 L69,0 L60.0523634,2.03830581e-14 L44.9973487,17.9823548 C43.2793556,20.0358 40.3405904,18.5804591 40.3405904,15.6781815 L40.3405904,2.03830581e-14 L28.3509917,2.03830581e-14 L28.3509917,15.3111949 C28.3509917,18.2134724 25.4133993,19.6674124 23.6942333,17.6153678 L8.946464,0 L0,0 C5.70529671,6.81499611 9.98426925,11.9262432 12.8369176,15.3337412 C15.1289975,18.0716384 18.5671175,22.1784842 23.1512773,27.6542786 C26.4805485,31.6309032 28.3509917,37.025049 28.3509917,42.6489122 L28.3509917,68.9262271 C30.8969052,69.2371856 33.285855,69.1358025 35.900957,69.1358025 C37.3257774,69.1358025 43.4302668,68.7436926 44.9973487,68.4122381 L40.3405904,43.0172998 C40.3405904,37.392036 42.2110335,31.9978898 45.540305,28.0212653 Z" id="Path" fill="#6A560D"></path>
                    <path d="M48.2519302,14.1016269 C49.0726944,15.2713853 49.8923098,16.03642 50.7107766,16.3967309 C51.5292433,16.7570418 52.868104,16.942226 54.7273589,16.9522835 L68.8459821,0.145274585 L59.9432834,0.145274585 L48.2519302,14.1016269 Z" id="Path" fill="#513F03"></path>
                    <path d="M10.4885691,0.145274585 L0.192522247,0.145274585 L9.84998453,11.8173655 C12.4307254,10.3037504 14.0826569,9.94851596 14.8057792,10.7516621 C15.5289016,11.5548083 17.6374385,12.7946663 21.13139,14.4712363 L10.4885691,0.145274585 Z" id="Path" fill="#513F03"></path>
                    <path d="M28.4011261,0.145274585 L40.3305093,0.145274585 L40.3305093,14.3533154 C36.8662891,15.5886515 34.4493149,16.2063196 33.0795868,16.2063196 C31.7098587,16.2063196 30.1503718,15.5886515 28.4011261,14.3533154 L28.4011261,0.145274585 Z" id="Path" fill="#513F03"></path>
                </g>
                <g id="Group-2" transform="translate(77.792553, 41.148587) rotate(-109.000000) translate(-77.792553, -41.148587) translate(46.406317, 5.910749)">
                    <path d="M16.8520138,17.039001 C17.2948436,16.9755051 17.6312153,16.4773062 17.6705779,15.8704317 C18.239547,6.98588576 23.693062,0.0123230138 30.3453483,0.00499671661 C34.4918448,-0.00110889577 38.1767246,2.70113161 40.5062773,6.88819972 C40.7513993,7.32900792 41.1772315,7.52071671 41.5565442,7.32656593 C42.4126816,6.88819972 43.3394929,6.6476479 44.3083507,6.6452056 C48.2884504,6.64154229 51.579704,10.6771973 52.105732,15.9192747 C52.1629868,16.4858538 52.500253,16.9327676 52.917139,16.990158 C57.402691,17.6031381 60.9077554,22.7695086 60.9122284,29.06049 C60.9167013,35.7690795 56.9392852,41.2114133 52.0296904,41.2175189 L17.7994011,41.2590353 C12.8889115,41.2651406 8.90523337,35.8325754 8.90076035,29.1252073 C8.89628733,22.8464365 12.3807755,17.6800656 16.8520138,17.039001 Z" id="Path" fill="#A8FF95"></path>
                    <path d="M16.5223594,29.6897859 C16.5178316,24.0316554 19.5270765,19.3234659 23.5043873,18.3198012 C24.3248434,18.1134513 24.9352049,17.1964779 25.0583639,16.0829227 C25.4331004,12.6764519 22.8773614,8.03134298 24.5438294,5.63252127 C26.7796725,2.41410417 32.9420093,2.12094795 36.4697096,2.11605086 C34.6875266,0.864522334 33.7782011,0.0218423094 31.629258,0.0242844727 C27.8129134,0.0291256445 23.074787,0.608810714 20.7171616,4.16768632 C18.9125447,6.89178607 17.0499307,12.2347133 17.5931351,16.0240087 C17.6353637,16.3185877 17.5114964,16.5218651 17.4225153,16.6628113 C17.3188776,16.8269735 17.2625446,16.9306116 17.023308,16.9641164 C12.4972152,17.6063641 8.6659485,22.7270821 8.6704764,29.0054823 C8.67199397,31.2533982 9.26653147,33.37368 10.2435503,35.1991847 C12.1816041,38.8203294 15.6246563,41.2815771 18.9293932,41.27833 L25.0954927,41.2392579 C20.3647387,41.2453632 16.5259817,36.0744132 16.5223594,29.6897859 Z" id="Path" fill="#FFB63E"></path>
                    <path d="M10.1386532,54.0503038 C4.81942142,53.4893723 0.674081995,48.9687978 0.679403342,43.4748733 C0.684724688,37.6059262 5.42392794,32.8524317 11.2657173,32.8577738 L51.987958,32.8941007 C57.828683,32.8994431 62.5604366,37.6614852 62.5551153,43.5315009 C62.549794,49.0361096 58.379976,53.5566839 53.0437159,54.0930415 C52.5477653,54.143258 52.1465348,54.5343076 52.0784214,55.0300643 C51.4526294,59.616882 47.5371725,63.1480802 42.8022263,63.1448748 C41.6496196,63.1427378 40.5470338,62.9322549 39.5285255,62.5486845 C39.0772742,62.3788026 38.5706807,62.5465478 38.27907,62.9322549 C35.5077056,66.5959395 31.1239693,68.9604 26.1910684,68.9550576 C18.2771415,68.9486471 11.7893392,62.8467797 11.1124622,55.0728019 C11.0656342,54.5417868 10.6654679,54.1058628 10.1386532,54.0503038 Z" id="Path" fill="#A8FF95"></path>
                    <path d="M7.61780468,43.3533759 C7.61270417,48.3677522 11.0025464,52.5402672 15.4828915,53.4297399 C16.4071155,53.6126123 17.0946732,54.425257 17.2334088,55.4121174 C17.5657319,57.7887455 17.2777633,63.0445028 19.4100935,64.9641697 C23.6203556,68.7545304 31.4688745,68.2951022 31.5684171,68.292229 C29.5608308,69.4013648 27.0560961,69.6458474 24.6353633,69.643683 C17.0457077,69.6361087 10.8250462,63.4498359 10.1813536,55.5701018 C10.1374889,55.0377166 9.74984517,54.603801 9.24896863,54.5486147 C4.15043372,53.9794388 0.177085927,49.4011423 0.182186489,43.8370675 C0.187287051,37.8931814 4.62393376,32.6826148 10.2233452,32.6869432 L16.4316137,32.814964 C11.1025329,32.8095533 7.62188514,37.69516 7.61780468,43.3533759 Z" id="Path" fill="#FFB63E"></path>
                </g>
                <g id="Group-2" filter="url(#filter-2)" transform="translate(43.386236, 70.008680) rotate(-109.000000) translate(-43.386236, -70.008680) translate(12.000000, 35.200572)">
                    <path d="M16.9187537,17.0340146 C17.3615834,16.9705187 17.6979551,16.4723198 17.7373177,15.8654453 C18.3062868,6.98089937 23.7598018,0.0073366222 30.4120882,1.03249818e-05 C34.5585846,-0.00609528739 38.2434644,2.69614522 40.5730171,6.88321332 C40.8181391,7.32402153 41.2439713,7.51573032 41.623284,7.32157954 C42.4794214,6.88321332 43.4062327,6.64266151 44.3750905,6.6402192 C48.3551902,6.6365559 51.6464438,10.6722109 52.1724718,15.9142884 C52.2297266,16.4808674 52.5669928,16.9277812 52.9838788,16.9851716 C57.4694308,17.5981517 60.9744952,22.7645222 60.9789682,29.0555037 C60.9834411,35.7640931 57.0060251,41.2064269 52.0964302,41.2125325 L17.8661409,41.2540489 C12.9556513,41.2601542 8.97197319,35.827589 8.96750018,29.1202209 C8.96302716,22.8414501 12.4475154,17.6750792 16.9187537,17.0340146 Z" id="Path" fill="#A8FF95"></path>
                    <path d="M16.8193829,29.6655067 C16.814855,24.0073763 19.8241,19.2991867 23.8014108,18.295522 C24.6218668,18.0891721 25.2322284,17.1721987 25.3553874,16.0586435 C25.7301239,12.6521727 23.1743849,8.0070638 24.8408529,5.60824209 C27.0766959,2.38982499 33.2390328,2.09666877 36.7667331,2.09177168 C34.9845501,0.840243155 34.0752246,-0.00243686913 31.9262815,5.29418588e-06 C28.1099369,0.00484646599 23.3718105,0.584531536 21.0141851,4.14340715 C19.2095682,6.86750689 17.3469542,12.2104341 17.8901586,15.9997295 C17.9323872,16.2943086 17.8085199,16.4975859 17.7195387,16.6385321 C17.6159011,16.8026943 17.5595681,16.9063325 17.3203315,16.9398372 C12.7942386,17.5820849 8.96297199,22.7028029 8.96749988,28.9812031 C8.96901746,31.229119 9.56355496,33.3494008 10.5405738,35.1749056 C12.4786276,38.7960502 15.9216798,41.2572979 19.2264167,41.2540508 L25.3925161,41.2149787 C20.6617622,41.221084 16.8230052,36.050134 16.8193829,29.6655067 Z" id="Path" fill="#FFB63E"></path>
                    <path d="M10.3560046,53.851994 C5.03677279,53.2910625 0.891433358,48.7704879 0.896754705,43.2765635 C0.902076051,37.4076164 5.6412793,32.6541218 11.4830687,32.659464 L52.2053094,32.6957908 C58.0460343,32.7011332 62.7777879,37.4631753 62.7724666,43.3331911 C62.7671453,48.8377998 58.5973274,53.358374 53.2610673,53.8947316 C52.7651166,53.9449482 52.3638861,54.3359978 52.2957727,54.8317544 C51.6699808,59.4185722 47.7545239,62.9497703 43.0195777,62.946565 C41.866971,62.9444279 40.7643852,62.7339451 39.7458769,62.3503747 C39.2946255,62.1804927 38.788032,62.3482379 38.4964214,62.7339451 C35.725057,66.3976297 31.3413207,68.7620901 26.4084197,68.7567477 C18.4944929,68.7503372 12.0066906,62.6484698 11.3298135,54.8744921 C11.2829856,54.3434769 10.8828193,53.9075529 10.3560046,53.851994 Z" id="Path" fill="#A8FF95"></path>
                    <path d="M7.4356231,43.3258949 C7.43052259,48.3402712 10.8203648,52.5127862 15.3007099,53.4022589 C16.224934,53.5851313 16.9124916,54.397776 17.0512272,55.3846364 C17.3835504,57.7612644 17.0955817,63.0170218 19.227912,64.9366887 C23.438174,68.7270493 31.286693,68.2676211 31.3862356,68.264748 C29.3786492,69.3738838 26.8739145,69.6183663 24.4531817,69.616202 C16.8635261,69.6086276 10.6428647,63.4223548 9.99917203,55.5426207 C9.95530728,55.0102355 9.56766358,54.57632 9.06678705,54.5211337 C3.96825214,53.9519577 -0.00509565683,49.3736613 4.90512583e-06,43.8095864 C0.00510546708,37.8657004 4.44175217,32.6551338 10.0411636,32.6594622 L16.2494321,32.7874829 C10.9203513,32.7820723 7.43970356,37.667679 7.4356231,43.3258949 Z" id="Path" fill="#FFB63E"></path>
                </g>
                <g id="Group-2" filter="url(#filter-3)" transform="translate(95.792553, 74.148587) rotate(-109.000000) translate(-95.792553, -74.148587) translate(64.406317, 38.910749)">
                    <path d="M16.8520138,17.039001 C17.2948436,16.9755051 17.6312153,16.4773062 17.6705779,15.8704317 C18.239547,6.98588576 23.693062,0.0123230138 30.3453483,0.00499671661 C34.4918448,-0.00110889577 38.1767246,2.70113161 40.5062773,6.88819972 C40.7513993,7.32900792 41.1772315,7.52071671 41.5565442,7.32656593 C42.4126816,6.88819972 43.3394929,6.6476479 44.3083507,6.6452056 C48.2884504,6.64154229 51.579704,10.6771973 52.105732,15.9192747 C52.1629868,16.4858538 52.500253,16.9327676 52.917139,16.990158 C57.402691,17.6031381 60.9077554,22.7695086 60.9122284,29.06049 C60.9167013,35.7690795 56.9392852,41.2114133 52.0296904,41.2175189 L17.7994011,41.2590353 C12.8889115,41.2651406 8.90523337,35.8325754 8.90076035,29.1252073 C8.89628733,22.8464365 12.3807755,17.6800656 16.8520138,17.039001 Z" id="Path" fill="#A8FF95"></path>
                    <path d="M16.5223594,29.6897859 C16.5178316,24.0316554 19.5270765,19.3234659 23.5043873,18.3198012 C24.3248434,18.1134513 24.9352049,17.1964779 25.0583639,16.0829227 C25.4331004,12.6764519 22.8773614,8.03134298 24.5438294,5.63252127 C26.7796725,2.41410417 32.9420093,2.12094795 36.4697096,2.11605086 C34.6875266,0.864522334 33.7782011,0.0218423094 31.629258,0.0242844727 C27.8129134,0.0291256445 23.074787,0.608810714 20.7171616,4.16768632 C18.9125447,6.89178607 17.0499307,12.2347133 17.5931351,16.0240087 C17.6353637,16.3185877 17.5114964,16.5218651 17.4225153,16.6628113 C17.3188776,16.8269735 17.2625446,16.9306116 17.023308,16.9641164 C12.4972152,17.6063641 8.6659485,22.7270821 8.6704764,29.0054823 C8.67199397,31.2533982 9.26653147,33.37368 10.2435503,35.1991847 C12.1816041,38.8203294 15.6246563,41.2815771 18.9293932,41.27833 L25.0954927,41.2392579 C20.3647387,41.2453632 16.5259817,36.0744132 16.5223594,29.6897859 Z" id="Path" fill="#FFB63E"></path>
                    <path d="M10.1386532,54.0503038 C4.81942142,53.4893723 0.674081995,48.9687978 0.679403342,43.4748733 C0.684724688,37.6059262 5.42392794,32.8524317 11.2657173,32.8577738 L51.987958,32.8941007 C57.828683,32.8994431 62.5604366,37.6614852 62.5551153,43.5315009 C62.549794,49.0361096 58.379976,53.5566839 53.0437159,54.0930415 C52.5477653,54.143258 52.1465348,54.5343076 52.0784214,55.0300643 C51.4526294,59.616882 47.5371725,63.1480802 42.8022263,63.1448748 C41.6496196,63.1427378 40.5470338,62.9322549 39.5285255,62.5486845 C39.0772742,62.3788026 38.5706807,62.5465478 38.27907,62.9322549 C35.5077056,66.5959395 31.1239693,68.9604 26.1910684,68.9550576 C18.2771415,68.9486471 11.7893392,62.8467797 11.1124622,55.0728019 C11.0656342,54.5417868 10.6654679,54.1058628 10.1386532,54.0503038 Z" id="Path" fill="#A8FF95"></path>
                    <path d="M7.61780468,43.3533759 C7.61270417,48.3677522 11.0025464,52.5402672 15.4828915,53.4297399 C16.4071155,53.6126123 17.0946732,54.425257 17.2334088,55.4121174 C17.5657319,57.7887455 17.2777633,63.0445028 19.4100935,64.9641697 C23.6203556,68.7545304 31.4688745,68.2951022 31.5684171,68.292229 C29.5608308,69.4013648 27.0560961,69.6458474 24.6353633,69.643683 C17.0457077,69.6361087 10.8250462,63.4498359 10.1813536,55.5701018 C10.1374889,55.0377166 9.74984517,54.603801 9.24896863,54.5486147 C4.15043372,53.9794388 0.177085927,49.4011423 0.182186489,43.8370675 C0.187287051,37.8931814 4.62393376,32.6826148 10.2233452,32.6869432 L16.4316137,32.814964 C11.1025329,32.8095533 7.62188514,37.69516 7.61780468,43.3533759 Z" id="Path" fill="#FFB63E"></path>
                </g>
            </g>
        </g>
    </g>
</svg>