<?xml version="1.0" encoding="UTF-8"?>
<svg width="33px" height="71px" viewBox="0 0 33 71" version="1.1" xmlns="http://www.w3.org/2000/svg" xmlns:xlink="http://www.w3.org/1999/xlink">
    <!-- Generator: Sketch 52.5 (67469) - http://www.bohemiancoding.com/sketch -->
    <title>Group 10</title>
    <desc>Created with Sketch.</desc>
    <g id="Page-1" stroke="none" stroke-width="1" fill="none" fill-rule="evenodd">
        <g id="12.9″-iPad-Pro" transform="translate(-739.000000, -749.000000)">
            <g id="034-windmill" transform="translate(660.000000, 633.000000)">
                <g id="Group-10" transform="translate(79.000000, 116.000000)">
                    <path d="M24.2925314,0.219959455 C22.345693,2.20545825 19.6251493,3.44309572 16.6102123,3.44309572 C13.4858029,3.44309572 10.6750179,2.11600824 8.71782379,-2.13162821e-14 L0.175320455,70 C5.71991917,69.361751 11.1853972,70 16.6102123,70 C21.7480313,70 26.7850208,70 32.1817005,70 L24.2925314,0.219959455 Z" id="Path" fill="#3F6DC9"></path>
                    <path d="M23.6101218,0.217355995 C22.0371135,1.78231783 19.9632615,2.8734439 17.6374882,3.25309223 C17.3570761,3.29946147 17.0721649,3.33278908 16.7842549,3.35742302 C16.7497656,3.36032091 16.7137768,3.36321881 16.6777881,3.36611707 C16.3958765,3.38785274 16.1109654,3.400894 15.8230554,3.400894 C12.656045,3.400894 9.80693537,2.08951404 7.82305523,-4.26325641e-14 L1.0658141e-14,69.8161354 C3.54939093,70.4058939 7.18545302,69.6190662 10.8578053,69.8161354 L17.3420806,6.19898788 C19.8148081,5.93816091 22.0925961,5.047002 24,3.69504895 L23.6101218,0.217355995 Z" id="Path" fill="#2E5FAF"></path>
                </g>
            </g>
        </g>
    </g>
</svg>